<svg xmlns="http://www.w3.org/2000/svg" viewBox="0 0 64 64" width="64" height="64">
  <defs>
    <radialGradient id="bgGrad" cx="50%" cy="50%" r="50%">
      <stop offset="0%" stop-color="#3D1580"/>
      <stop offset="100%" stop-color="#2D0B5A"/>
    </radialGradient>
    <radialGradient id="glowGrad" cx="50%" cy="50%" r="50%">
      <stop offset="0%" stop-color="#E0C097" stop-opacity="0.3"/>
      <stop offset="100%" stop-color="#E0C097" stop-opacity="0"/>
    </radialGradient>
  </defs>
  <!-- Background circle -->
  <circle cx="32" cy="32" r="32" fill="url(#bgGrad)"/>
  <!-- Glow effect -->
  <circle cx="32" cy="32" r="28" fill="url(#glowGrad)"/>
  <!-- Outer subtle ring -->
  <circle cx="32" cy="32" r="28" fill="none" stroke="#E0C097" stroke-width="0.5" stroke-opacity="0.4"/>
  <!-- Crescent moon shape -->
  <path d="M 38 14 A 16 16 0 1 0 38 50 A 10 10 0 1 1 38 14 Z" fill="#E0C097" opacity="0.95"/>
  <!-- Central star -->
  <g transform="translate(40, 30)" fill="#FAF9F6">
    <polygon points="0,-5.5 1.3,-1.7 5.2,-1.7 2.1,1 3.2,5 0,2.8 -3.2,5 -2.1,1 -5.2,-1.7 -1.3,-1.7" opacity="0.95"/>
  </g>
  <!-- Small sparkle dots -->
  <circle cx="18" cy="18" r="1.2" fill="#E0C097" opacity="0.7"/>
  <circle cx="46" cy="16" r="0.8" fill="#E0C097" opacity="0.6"/>
  <circle cx="14" cy="38" r="0.9" fill="#E0C097" opacity="0.5"/>
  <circle cx="50" cy="44" r="1.1" fill="#E0C097" opacity="0.6"/>
  <circle cx="22" cy="52" r="0.7" fill="#E0C097" opacity="0.5"/>
</svg>
